<svg t="1714819483208" class="icon" viewBox="0 0 1024 1024" version="1.1" xmlns="http://www.w3.org/2000/svg" p-id="33287" xmlns:xlink="http://www.w3.org/1999/xlink" width="200" height="200"><path d="M905.832448 713.386667c-37.546667-46.08-88.746667-109.226667-88.746667-175.786667V327.68C817.085781 146.773333 682.259115 0 509.885781 0S204.904448 146.773333 204.904448 327.68v209.92c0 64.853333-56.32 126.293333-90.453333 172.373333-32.426667 42.666667-56.32 76.8-39.253334 109.226667 15.36 29.013333 52.906667 34.133333 83.626667 34.133333h180.906667a170.666667 170.666667 0 0 0 341.333333 0h187.733333c18.773333 0 64.853333 0 80.213334-32.426666S939.965781 756.053333 905.832448 713.386667zM510.397781 957.44a103.424 103.424 0 0 1-104.106666-104.106667h208.213333a103.424 103.424 0 0 1-104.106667 104.106667z m358.4-172.373333H143.464448c6.826667-10.24 17.066667-23.893333 23.893333-34.133334 39.253333-52.906667 104.106667-126.293333 104.106667-213.333333V327.68c0-143.36 102.4-259.413333 237.226667-259.413333s238.933333 116.053333 238.933333 259.413333v209.92c0 90.453333 59.733333 165.546667 104.106667 218.453333 6.826667 8.533333 17.066667 20.48 23.893333 29.013334z" fill="#1B1B1B" p-id="33288"></path></svg>