<svg t="1715678509596" class="icon" viewBox="0 0 1024 1024" version="1.1" xmlns="http://www.w3.org/2000/svg" p-id="12528" xmlns:xlink="http://www.w3.org/1999/xlink" width="200" height="200"><path d="M832 0H192C85.968 0 0 85.968 0 192v640c0 106.032 85.968 192 192 192h640c106.032 0 192-85.968 192-192V192c0-106.032-85.968-192-192-192zM580.496 522.368l181.28 181.248c8.32 8.336 8.32 20.784 0 29.072l-29.056 29.04a20 20 0 0 1-29.024 0L522.4 580.48a13.36 13.36 0 0 0-19.376 0L320.336 761.744a20 20 0 0 1-29.04 0l-29.072-29.024a20.08 20.08 0 0 1 0-29.056l182.672-182.656a13.328 13.328 0 0 0 0-19.36l-181.264-181.28a20.032 20.032 0 0 1 0-29.056l29.056-29.056a20.064 20.064 0 0 1 29.056 0l181.28 182.672a13.376 13.376 0 0 0 19.376 0l181.28-181.28a20.016 20.016 0 0 1 29.024 0l29.056 29.056c8.32 8.304 8.32 20.752 0 29.056L580.48 503.024c-4.144 5.52-4.144 13.808 0.016 19.344z" fill="#888" p-id="12529"></path></svg>