<svg t="1714792412159" class="icon" viewBox="0 0 1024 1024" version="1.1" xmlns="http://www.w3.org/2000/svg" p-id="25935" xmlns:xlink="http://www.w3.org/1999/xlink" width="200" height="200"><path d="M1018.934746 440.11432l-2.660538-19.44239-20.670331-4.195463c-21.079644-4.297792-41.340662-11.972419-59.964425-22.819227-41.238333-23.84251-72.960128-61.704007-89.12801-106.72849-16.167882-44.819826-16.167882-94.039772-0.102328-138.75727l6.344359-17.60048-15.04227-12.177076c-20.874988-16.986509-43.387229-32.540422-66.718097-45.945438-20.977316-12.074748-43.182572-22.921555-65.89947-32.02878l-21.181973-8.493255-14.325972 16.781853c-63.545918 74.188068-170.78605 92.709503-254.89997 44.103528-20.465674-11.870091-38.373139-26.810033-53.517738-44.819826L346.944339 31.005496l-21.284301 8.288598C280.737883 56.996902 238.476267 80.737084 200.103128 110.207655l-16.270211 12.484061 7.162986 18.419107c22.921555 58.838813 17.702808 123.817328-14.223643 178.358349-31.517138 53.722394-84.830219 89.946637-146.329569 99.053862l-22.205256 3.274508-2.865194 20.568002c-6.549016 46.047767-6.651344 92.709503-0.409313 138.552613l2.762866 20.261017 21.693614 3.683821c23.637854 3.990806 46.150095 12.177076 67.025082 24.251824 41.954632 24.251824 73.881083 62.829619 89.844309 108.672729 15.963226 45.740781 15.246927 95.779354-2.046567 140.906166l-6.958329 18.21445 15.860897 12.484061c18.930748 14.939942 39.089437 28.549615 59.964425 40.624363 23.22854 13.507345 47.68502 25.070451 72.653143 34.689317l21.181973 8.18627 14.325972-16.781853c30.493854-36.326571 72.960128-61.090037 119.724193-69.583292 46.968722-8.697911 95.472369-0.204657 136.813031 23.637854 19.340062 11.153792 36.633557 25.377436 51.368842 42.363945l14.4283 16.577196 21.079644-8.595583c46.661737-18.930748 90.048966-44.410513 128.933746-75.722994l14.530629-11.767763-5.423404-17.088838c-17.191166-55.052663-10.437494-115.221745 18.82842-165.055661 14.735285-25.172779 34.177676-46.559408 57.713201-63.341261 22.61457-16.167882 47.787349-27.321675 74.904367-33.25672l19.647047-4.297792 3.069851-18.521435C1025.279105 541.21475 1025.893075 490.35755 1018.934746 440.11432zM959.891276 565.159588c-27.833317 8.390926-53.824723 21.181973-77.564905 38.066154-30.289198 21.591286-55.154992 48.810633-73.983412 80.941741-18.726092 32.02878-30.186869 66.718097-34.075347 103.249325-3.069851 28.958929-1.22794 57.917857 5.423404 86.058159-24.763466 18.419107-51.573499 34.280004-79.816129 47.275707-15.246927-14.632957-32.233437-27.424003-50.652543-38.066154-54.336365-31.312481-118.189268-42.363945-180.20026-31.107825-53.313081 9.721195-102.226042 35.507944-140.087539 73.267113-14.939942-6.651344-29.675227-14.018987-44.001199-22.307585-12.893375-7.367643-25.479764-15.451584-37.554512-24.251824 15.04227-51.368842 13.81433-106.523833-3.990806-157.892675C223.127011 662.064555 182.195663 612.74228 128.166284 581.634456c-20.670331-11.972419-42.773259-20.977316-65.797142-26.912361-2.660538-28.447287-2.558209-57.099231 0.204657-85.648846 70.401919-16.679524 130.366344-60.680723 166.9999-123.203358s45.331468-135.994404 24.661137-204.452084c23.637854-16.577196 48.708304-30.800839 75.006695-42.466274 15.860897 15.860897 33.973019 29.572899 53.620066 40.931348 40.419706 23.22854 86.058159 35.405616 132.412911 35.405616 15.451584 0 31.005496-1.330269 46.354752-3.990806 52.699111-9.311882 101.407415-34.382332 139.268912-71.322874 13.098031 5.935045 25.889078 12.58639 38.27081 19.749375 15.246927 8.80024 30.084541 18.623763 44.308184 29.265914-31.107825 112.35655 17.498151 232.797042 120.235835 292.045168 18.21445 10.437494 37.554512 18.726092 57.610872 24.661137C964.598381 498.543819 964.086739 532.005196 959.891276 565.159588z" p-id="25936"></path><path d="M613.7144 340.548816c-45.126811-26.093734-98.132907-33.563705-148.990107-21.079644-25.991406 6.446687-50.140901 17.60048-71.629859 33.359049-22.205256 16.167882-40.419706 36.4289-54.336365 60.169082-26.810033 45.638453-34.075347 98.746877-20.670331 149.604077C331.492755 613.765564 364.340162 656.641151 410.387928 683.246527c30.903168 17.907465 65.490157 27.01469 100.486459 27.01469 16.167882 0 32.438093-1.944239 48.503647-5.935045 25.991406-6.446687 50.140901-17.60048 71.629859-33.359049 22.205256-16.167882 40.419706-36.4289 54.336365-60.169082 26.810033-45.638453 34.075347-98.746877 20.670331-149.604077C692.609573 410.029779 659.762166 367.154192 613.7144 340.548816zM650.75727 593.402218c-22.409913 38.27081-58.429499 65.183172-101.305086 75.722994-40.317378 9.823524-82.374338 3.888478-118.189268-16.781853-77.257919-44.615169-103.351654-144.078345-57.917857-221.64325 22.409913-38.27081 58.429499-65.183172 101.305086-75.722994 12.688718-3.069851 25.582093-4.604777 38.373139-4.604777 27.833317 0 55.154992 7.265314 79.816129 21.488958C670.097332 416.476466 696.191066 515.939642 650.75727 593.402218z" p-id="25937"></path></svg>