<svg t="1715051949155" class="icon" viewBox="0 0 1536 1024" version="1.1" xmlns="http://www.w3.org/2000/svg" p-id="13950" xmlns:xlink="http://www.w3.org/1999/xlink" width="300" height="200"><path d="M0 0h1536.384096v1024H0z" fill="#01247D" p-id="13951"></path><path d="M1536.384096 358.745686h-614.553638V0H614.553638v358.745686H0v307.27682h614.553638v357.977494h307.27682V666.022506h614.553638v-307.27682z" fill="#FFFFFF" p-id="13952"></path><path d="M1536.384096 906.466617L175.915979 0H0v118.301575l1358.931733 905.698425H1536.384096V906.466617z" fill="#FFFFFF" p-id="13953"></path><path d="M0 906.466617L1359.699925 0H1536.384096v118.301575L177.452363 1024H0V906.466617z" fill="#FFFFFF" p-id="13954"></path><path d="M1536.384096 422.505626h-678.313578V0H678.313578v422.505626H0v178.988748h678.313578v422.505626h179.75694v-422.505626H1536.384096V422.505626z" fill="#CF142B" p-id="13955"></path><path d="M1536.384096 1020.927232v-80.660165l-413.287322-274.244561h-121.374343L1536.384096 1020.927232zM1536.384096 0h-121.374344L921.830458 328.018005v30.727681h75.28282L1536.384096 0zM534.661665 666.022506L0 1021.695424v2.304576h117.533383L614.553638 693.677419v-27.654913H534.661665zM0 0.768192v80.660165l416.36009 277.317329H537.734434L0 0.768192z" fill="#CF142B" p-id="13956"></path></svg>