<svg t="1714791923642" class="icon" viewBox="0 0 1164 1024" version="1.1" xmlns="http://www.w3.org/2000/svg" p-id="14875" xmlns:xlink="http://www.w3.org/1999/xlink" width="227.34375" height="200"><path d="M712.508776 401.834764a22.574936 22.574936 0 0 0 0-45.149872h-130.934629l129.128634-135.449616a22.574936 22.574936 0 0 0 0-32.056409 22.123437 22.123437 0 0 0-31.60491 0l-112.87468 117.841166-119.647161-119.195662a22.574936 22.574936 0 0 0-32.056409 32.056409l137.707109 135.449616H412.713626a22.574936 22.574936 0 0 0 0 45.149872H542.293759v55.082843H412.713626a22.574936 22.574936 0 0 0-22.574936 22.574936 22.574936 22.574936 0 0 0 22.574936 22.574936H542.293759v79.463775a22.574936 22.574936 0 0 0 22.574936 22.574936 22.574936 22.574936 0 0 0 22.574936-22.574936v-78.109278h127.322639a22.574936 22.574936 0 0 0 22.574936-22.574936 22.574936 22.574936 0 0 0-22.574936-22.574936H587.443631V401.834764z" p-id="14876"></path><path d="M1164.007496 195.04835c0-119.647161-60.04933-191.435457-160.733544-193.241452V0.000903H248.368092A116.48667 116.48667 0 0 0 131.429923 116.939071V812.698599H0.495295v22.574936a162.539539 162.539539 0 0 0 158.927549 175.181503h642.03118v-45.149872H159.422844A113.777677 113.777677 0 0 1 45.645167 857.848471h744.972888a191.435457 191.435457 0 0 0 74.04579 138.158608 131.386128 131.386128 0 0 0 74.04579 26.638425 56.43734 56.43734 0 0 0 15.802455 0h5.869483l4.514987-4.514987c5.869483-5.869483 37.022895-45.149872 37.022896-186.92047V217.623286h160.733544z m-225.74936 783.801778a87.590752 87.590752 0 0 1-45.149872-18.059949 156.218557 156.218557 0 0 1-57.340337-125.516644v-21.22044H176.579795V116.939071A71.336798 71.336798 0 0 1 248.368092 45.150775H958.12408v784.253277a369.325953 369.325953 0 0 1-20.768941 149.446076z m65.015816-806.376714V45.150775c87.139253 2.257494 110.165688 71.788296 114.680675 125.516644z" p-id="14877"></path><path d="M692.642832 666.864512H438.449053a23.026435 23.026435 0 0 0-22.574936 22.574936 22.574936 22.574936 0 0 0 22.574936 22.574936h254.193779a22.574936 22.574936 0 0 0 22.574936-22.574936 23.026435 23.026435 0 0 0-22.574936-22.574936z" p-id="14878"></path></svg>