<svg t="1714792047498" class="icon" viewBox="0 0 1024 1024" version="1.1" xmlns="http://www.w3.org/2000/svg" p-id="20555" xmlns:xlink="http://www.w3.org/1999/xlink" width="200" height="200"><path d="M578.9184 0.768a32 32 0 0 0-32.0512 31.8976v409.856c0 17.6128 14.336 31.9488 32.0512 31.9488h412.0064c17.7152 0 32.1024-14.336 32.1024-31.9488 0-243.712-199.1168-441.7536-444.1088-441.7536z m32.1024 409.856V66.2528c183.6032 15.36 330.7008 161.7408 346.1632 344.3712h-346.1632z" fill="#97999F" p-id="20556"></path><path d="M847.7184 570.1632c0 214.528-175.36 388.9664-391.0144 388.9664-215.7056 0-391.0144-174.3872-391.0144-388.9664 0-214.528 175.3088-388.9664 391.0144-388.9664h32.0512V116.8384H456.704c-251.0848 0-455.68 203.5712-455.68 453.3248 0 249.7536 204.5952 453.3248 455.68 453.3248s455.68-203.5712 455.68-453.3248v-31.8976h-64.6656v31.8976z" fill="#97999F" p-id="20557"></path></svg>