<svg width="1201" height="1201" viewBox="0 0 1201 1201" fill="none" xmlns="http://www.w3.org/2000/svg">
<rect width="1200" height="1200" transform="translate(0.0351562 0.577393)" fill="white"/>
<g clip-path="url(#clip0_416_11751)">
<path d="M645.304 206.519C645.643 210.503 648.486 212.515 650.724 214.835C685.732 251.095 720.842 287.263 755.902 323.482C786.444 355.03 816.965 386.609 847.486 418.178C876.355 448.032 905.234 477.855 934.072 507.74C960.291 534.915 986.419 562.192 1012.67 589.346C1039.4 616.993 1066.22 644.558 1093.03 672.133C1094.53 673.673 1095.58 675.202 1095.56 677.481C1095.49 686.711 1095.53 695.95 1095.53 706.422C946.915 559.492 799.009 413.27 650.714 266.649C649.667 269.687 651.392 270.406 652.357 271.412C689.459 310.177 726.592 348.922 763.694 387.687C805.754 431.637 847.805 475.597 889.845 519.577C934.965 566.781 980.044 614.006 1025.17 661.199C1047.62 684.668 1070.08 708.116 1092.63 731.471C1094.7 733.617 1095.69 735.67 1095.64 738.637C1095.49 746.789 1095.59 754.94 1095.59 764.097C943.301 612.373 791.803 461.45 640.304 310.526C640.181 310.629 640.048 310.742 639.924 310.845C645.55 316.891 651.176 322.948 656.822 328.985C691.019 365.563 725.195 402.162 759.433 438.7C785.027 466.018 810.723 493.224 836.306 520.542C864.929 551.094 893.458 581.749 922.081 612.301C946.145 637.987 970.311 663.571 994.375 689.257C1027.45 724.562 1060.47 759.909 1093.53 795.225C1094.6 796.385 1095.51 797.493 1095.5 799.208C1095.46 807.349 1095.48 815.49 1095.48 824.914C944.851 671.886 795.036 519.68 644.986 367.237C643.702 369.67 645.088 370.286 645.807 371.066C670.435 397.851 695.136 424.563 719.723 451.399C743.161 476.983 766.435 502.72 789.872 528.314C813.762 554.41 837.785 580.394 861.715 606.45C891.775 639.168 921.814 671.917 951.853 704.646C987.569 743.545 1023.27 782.453 1058.99 821.352C1069.98 833.312 1080.92 845.303 1092.01 857.171C1094.51 859.85 1095.72 862.622 1095.58 866.328C1095.33 872.621 1095.51 878.935 1094.41 885.937C943.055 729.521 791.7 573.115 639.544 415.868C639.36 419.399 641.228 420.539 642.409 421.853C671.832 454.695 701.326 487.475 730.76 520.306C769.196 563.178 807.633 606.039 845.998 648.972C874.466 680.839 902.749 712.879 931.259 744.705C973.904 792.309 1016.69 839.79 1059.39 887.353C1069.67 898.8 1079.7 910.463 1090.14 921.745C1093.98 925.883 1096.41 929.989 1095.53 935.83C1095.09 938.777 1095.45 941.846 1095.45 945.984C1088.38 938.941 1082.14 932.792 1075.97 926.56C1057.58 907.978 1039.22 889.376 1020.86 870.753C978.38 827.666 935.95 784.527 893.417 741.491C858.194 705.857 822.817 670.388 787.583 634.764C756.22 603.041 724.959 571.195 693.668 539.411C664.296 509.578 634.925 479.734 605.563 449.88C600.112 444.336 599.773 444.274 594.26 449.88C554.222 490.554 514.235 531.28 474.166 571.924C445.257 601.245 416.203 630.421 387.252 659.7C358.168 689.134 329.166 718.659 300.072 748.082C275.074 773.368 249.922 798.499 224.954 823.816C188.704 860.559 152.557 897.404 116.389 934.229C112.703 937.986 109.213 941.939 105.106 945.44C104.347 936.508 102.94 928.583 110.229 920.79C136.367 892.846 161.694 864.142 187.216 835.622C220.026 798.941 252.673 762.096 285.484 725.414C318.294 688.733 351.259 652.186 384.101 615.525C407.456 589.439 430.658 563.208 454.034 537.142C483.929 503.818 513.948 470.607 543.884 437.314C548.227 432.489 552.374 427.499 556.594 422.561C557.641 421.34 559.088 420.303 559.088 417.089C407.261 573.978 256.194 730.096 104.265 887.107C104.265 878.288 103.608 870.466 104.48 862.827C105.127 857.212 110.712 854.05 114.336 850.077C149.456 811.558 184.69 773.142 219.985 734.798C249.726 702.48 279.673 670.346 309.414 638.018C333.365 611.983 357.111 585.753 380.99 559.646C410.752 527.102 440.514 494.579 470.337 462.086C498.169 431.77 526.062 401.526 553.935 371.251C554.612 370.512 555.567 369.927 555.043 367.011C404.623 519.823 254.901 671.938 104.254 824.976C104.254 815.469 104.275 807.205 104.244 798.941C104.244 796.97 105.62 795.882 106.78 794.66C124.961 775.401 143.256 756.234 161.345 736.882C198.344 697.316 235.2 657.627 272.179 618.04C310.677 576.821 349.206 535.633 387.786 494.476C419.683 460.444 451.693 426.514 483.611 392.502C507.819 366.703 531.975 340.853 556.132 315.002C557.384 313.658 559.047 312.549 560.053 311.183C408.575 462.066 257.108 612.948 105.63 763.841C105.23 763.656 104.819 763.471 104.419 763.297C104.419 753.862 104.357 744.417 104.511 734.982C104.521 734.028 105.722 733.001 106.523 732.159C142.342 694.749 178.192 657.37 214.021 619.96C255.157 577.006 296.273 534.052 337.39 491.078C366.33 460.824 395.25 430.559 424.17 400.284C457.812 365.071 491.434 329.837 525.087 294.624C532.488 286.873 539.973 279.204 547.364 271.453C548.339 270.437 550.033 269.739 549.233 266.484C400.804 413.229 252.909 559.471 104.254 706.453C104.254 695.724 104.224 686.054 104.275 676.383C104.275 674.545 105.609 673.324 106.821 672.081C133.503 644.63 160.226 617.219 186.846 589.695C225.344 549.883 263.74 509.978 302.207 470.145C341.619 429.327 381.062 388.549 420.474 347.741C458.1 308.791 495.694 269.831 533.33 230.891C540.876 223.079 548.514 215.359 556.101 207.587L554.797 206.273C404.982 352.792 255.178 499.312 104.316 646.857C104.316 638.285 104.131 631.191 104.419 624.118C104.521 621.746 106.667 620.001 108.351 618.287C144.857 581.328 181.405 544.411 217.87 507.412C247.139 477.711 276.244 447.868 305.534 418.198C350.448 372.698 395.507 327.353 440.411 281.843C477.872 243.878 515.18 205.78 552.569 167.744C566.829 153.238 581.202 138.845 595.328 124.205C598.664 120.745 600.82 120.458 604.321 124.092C658.506 180.371 714.067 235.296 768.837 291.01C815.795 338.779 862.783 386.506 909.782 434.244C932.203 457.015 954.645 479.775 977.097 502.515C1015.38 541.3 1053.66 580.076 1091.99 618.82C1094.4 621.264 1095.81 623.81 1095.67 627.393C1095.45 633.327 1095.61 639.271 1095.61 646.929C944.738 499.373 795.026 352.946 645.314 206.509L645.304 206.519Z" fill="#0070B8"/>
<path d="M1012.55 945.758C737.217 945.635 461.898 946.364 185.347 947.041C196.517 935.605 206.834 925.01 217.172 914.446C257.241 873.525 297.29 832.583 337.39 791.693C368.373 760.094 399.449 728.597 430.412 696.987C469.516 657.062 508.538 617.044 547.621 577.088C563.626 560.714 579.734 544.442 595.646 527.985C598.5 525.039 600.235 525.193 603.048 528.067C640.407 566.134 677.879 604.088 715.319 642.063C745.317 672.482 775.356 702.87 805.344 733.309C841.204 769.713 877.012 806.168 912.872 842.572C944.79 874.972 976.758 907.332 1008.7 939.711C1010.24 941.272 1011.68 942.904 1013.17 944.505C1012.96 944.916 1012.74 945.327 1012.54 945.737L1012.55 945.758ZM768.858 881.317C770.531 882.549 771.404 883.083 772.163 883.76C783.004 893.411 793.846 903.071 804.666 912.732C809.255 916.838 812.612 921.766 813.577 927.905C814.142 931.508 816.082 932.094 819.234 932.063C832.405 931.94 845.577 931.858 858.738 932.094C863.112 932.176 863.635 930.359 862.773 926.837C861.438 921.365 860.175 915.873 858.954 910.381C849.263 867.078 839.561 823.775 829.972 780.441C829.172 776.807 827.56 775.308 823.73 775.349C799.441 775.596 775.161 775.75 750.871 775.709C746.262 775.709 744.28 777.433 743.336 781.909C739.424 800.45 735.195 818.919 731.088 837.429C724.477 867.273 717.937 897.127 711.182 926.94C710.258 931.005 711.316 932.124 715.258 932.083C728.255 931.94 741.262 931.888 754.249 932.083C758.037 932.145 759.156 930.564 759.803 927.145C762.626 912.095 765.706 897.096 768.847 881.317H768.858ZM394.665 880.988C395.835 881.861 396.533 882.313 397.149 882.867C408.113 892.641 419.098 902.393 430.001 912.239C434.508 916.304 438.306 920.996 439.323 927.176C439.99 931.283 442.074 932.227 445.965 932.145C457.073 931.888 468.191 932.114 479.31 932.011C490.438 931.909 490.069 933.634 487.471 921.981C481.414 894.827 475.337 867.694 469.208 840.56C464.66 820.418 459.927 800.317 455.533 780.144C454.671 776.16 452.587 775.349 449.065 775.38C435.042 775.483 421.018 775.411 406.994 775.462C396.903 775.503 386.811 775.667 376.73 775.719C372.428 775.75 370.272 777.238 369.225 782.022C358.733 830.212 347.933 878.34 337.102 926.468C336.219 930.389 336.65 932.165 341.209 932.073C350.951 931.857 360.704 932.053 370.447 932.042C385.569 932.032 385.302 931.97 387.684 917.043C389.583 905.135 392.242 893.339 394.655 880.999L394.665 880.988ZM540.075 799.516C540.24 799.146 540.394 798.766 540.558 798.397C542.231 798.397 543.905 798.397 545.568 798.397C564.899 798.397 584.24 798.304 603.572 798.469C607.925 798.51 609.947 797.247 609.506 792.617C609.198 789.393 609.444 786.118 609.434 782.874C609.434 777.892 606.85 775.394 601.683 775.38C574.652 775.38 547.611 775.38 520.58 775.38C510.314 775.38 500.047 775.483 489.781 775.339C485.849 775.288 484.166 776.633 484.432 780.718C484.699 784.804 484.669 788.942 484.391 793.028C484.114 797.155 485.942 798.479 489.802 798.417C498.528 798.284 507.264 798.612 515.97 798.263C520.816 798.068 522.53 799.424 522.5 804.546C522.294 838.938 522.417 873.33 522.376 907.722C522.376 913.871 522.068 920.031 521.914 926.18C521.812 930.307 523.341 932.258 527.971 932.135C539.942 931.827 551.933 931.765 563.893 932.124C569.067 932.278 570.617 930.708 570.576 925.523C570.35 896.614 570.299 867.694 570.556 838.784C570.627 830.376 567.65 823.97 561.408 818.601C554.171 812.379 547.159 805.891 540.044 799.526L540.075 799.516ZM634.545 829.555C636.68 829.904 637.707 831.351 638.929 832.47C643.99 837.059 649.01 841.7 654.071 846.289C655.601 847.685 657.233 848.814 659.502 848.794C666.165 848.742 672.838 848.732 679.501 848.835C682.509 848.876 683.771 847.51 684.048 844.605C685.157 833.086 679.993 826.064 668.516 824.658C653.024 822.769 637.44 822.759 622.02 825.12C605.122 827.707 599.209 841.505 608.263 856.196C611.939 862.16 616.754 867.18 622.728 871.852C619.792 872.396 617.482 872.776 615.193 873.248C612.688 873.771 610.183 874.326 607.699 874.962C600.338 876.872 596.745 881.235 596.56 888.904C596.396 896.08 597.012 903.307 596.406 910.432C595.441 921.673 600.338 929.209 614.331 931.775C628.436 934.362 642.881 934.301 657.233 933.469C665.066 933.018 672.94 932.535 679.778 927.854C681.656 926.56 683.073 927.772 684.028 929.332C686.02 932.597 688.473 932.391 691.44 930.769C695.783 928.398 700.187 926.119 704.653 923.983C707.671 922.546 708.174 921.088 705.525 918.748C701.942 915.575 698.596 912.146 694.972 909.025C691.933 906.408 690.372 903.513 690.516 899.283C690.834 890.577 690.609 881.851 690.629 873.125C690.629 870.332 690.29 867.93 686.605 867.961C680.794 868.002 674.983 867.94 669.173 867.94C666.329 867.94 665.282 869.583 665.302 872.231C665.333 875.414 665.302 878.607 665.302 882.128C664.409 881.656 663.896 881.533 663.588 881.204C654.728 871.954 645.879 862.694 637.04 853.424C636.095 852.438 635.356 851.36 635.068 849.923C633.724 843.188 633.97 836.443 634.555 829.565L634.545 829.555Z" fill="#0070B8"/>
<path d="M820.291 1018.81C815.959 1019.87 813.095 1018.5 813.577 1012.45C813.783 1009.85 812.387 1007.44 809.194 1007.03C806.699 1006.71 804.286 1006.92 802.788 1009.2C801.083 1011.79 801.474 1014.45 803.291 1016.84C805.056 1019.15 807.089 1021.22 809.471 1022.95C815.015 1026.96 820.209 1031.43 824.922 1036.4C832.919 1044.84 831.533 1059.57 822.232 1066.29C814.943 1071.56 799.728 1071.45 792.542 1066.07C786.844 1061.81 784.011 1053.26 785.982 1046.75C786.434 1045.25 787.327 1044.94 788.61 1044.93C790.15 1044.93 791.69 1044.92 793.23 1044.91C798.014 1044.9 800.786 1047.24 801.545 1051.95C802.285 1056.56 804.923 1058.82 808.66 1058.04C812.602 1057.22 814.666 1053.62 813.577 1049.35C812.736 1046.05 810.528 1043.7 807.972 1041.61C802.942 1037.52 797.819 1033.51 792.911 1029.26C786.639 1023.82 784.74 1014.51 788.199 1005.68C791.177 998.105 797.429 995.097 805.159 994.625C809.266 994.379 813.362 994.502 817.345 995.723C825.712 998.269 831.215 1008.42 828.751 1016.72C828.34 1018.1 825.524 1018.8 820.302 1018.81H820.291Z" fill="#0070B8"/>
<path d="M587.105 1032.3C587.105 1043.08 587.023 1053.85 587.146 1064.63C587.187 1067.85 586.284 1069.43 582.783 1069.04C580.411 1068.79 577.999 1069.01 575.607 1068.97C574.621 1068.95 572.999 1069.35 572.804 1068.39C571.542 1062.08 569.632 1066.3 567.64 1067.89C562.025 1072.36 553.853 1070.35 550.732 1063.82C549.223 1060.66 548.833 1057.29 548.843 1053.83C548.874 1043.91 548.863 1033.99 548.812 1024.07C548.781 1018.74 549.366 1013.43 554.633 1010.76C559.838 1008.14 564.858 1009.16 569.18 1013.39C571.562 1015.73 571.983 1013.61 572.034 1011.73C572.168 1007.62 572.229 1003.52 572.168 999.419C572.116 996.565 573.287 995.529 576.151 995.6C589.538 995.908 586.848 993.64 587.085 1006.13C587.249 1014.85 587.115 1023.58 587.105 1032.3ZM563.616 1039.75C563.616 1044.02 563.606 1048.28 563.616 1052.55C563.616 1055.25 563.051 1058.61 566.881 1058.94C570.782 1059.27 571.572 1055.84 571.767 1052.99C572.157 1047.04 572.147 1041.07 572.116 1035.1C572.106 1031.54 572.65 1027.94 571.47 1024.43C570.679 1022.08 569.314 1020.43 566.655 1020.82C564.119 1021.19 563.585 1023.18 563.595 1025.41C563.616 1030.19 563.595 1034.97 563.595 1039.75H563.616Z" fill="#0070B8"/>
<path d="M361.988 1056.99C359.534 1060.08 357.429 1062.4 354.021 1062.96C345.983 1064.28 339.648 1059.47 339.443 1051.26C339.217 1041.87 339.217 1032.46 339.515 1023.06C339.802 1013.96 344.422 1009.27 352.05 1009.49C355.592 1009.59 358.282 1011.02 360.14 1014.04C360.961 1015.37 362.552 1016.43 362.768 1014.21C363.148 1010.17 365.714 1010.77 368.219 1010.74C369.934 1010.72 371.648 1010.84 373.342 1010.74C376.299 1010.58 377.715 1011.68 377.695 1014.86C377.592 1031.28 377.9 1047.69 377.5 1064.1C377.233 1074.9 372.572 1079.07 361.813 1079.55C357.204 1079.75 352.543 1079.9 348.159 1078.06C346.609 1077.41 344.997 1076.62 343.816 1075.47C342.123 1073.83 340.172 1071.46 340.901 1069.34C341.589 1067.36 344.566 1068.4 346.486 1068.45C350.017 1068.54 353.59 1067.6 356.67 1071.18C358.394 1073.18 361.895 1072.05 362.398 1068.73C362.942 1065.14 363.22 1061.4 361.977 1056.98L361.988 1056.99ZM354.35 1036.58C354.35 1036.58 354.391 1036.58 354.401 1036.58C354.401 1040.69 354.309 1044.79 354.442 1048.89C354.504 1051 355.725 1052.46 357.943 1052.63C359.965 1052.78 361.279 1051.47 361.649 1049.7C363.435 1041.09 363.415 1032.41 361.741 1023.79C361.372 1021.9 359.78 1020.51 357.542 1020.77C355.243 1021.04 354.442 1022.77 354.391 1024.8C354.298 1028.73 354.36 1032.66 354.36 1036.59L354.35 1036.58Z" fill="#0070B8"/>
<path d="M423.975 1014.41C426.634 1014.19 427.322 1012.58 428.554 1011.76C432.568 1009.06 436.951 1008.72 441.263 1010.48C445.349 1012.14 446.951 1015.94 447.002 1020.04C447.197 1035.42 447.146 1050.8 447.187 1066.18C447.187 1067.36 447.32 1068.85 445.647 1068.9C441.725 1069.01 437.783 1069.13 433.872 1068.86C431.562 1068.71 432.414 1066.52 432.414 1065.15C432.383 1055.41 432.445 1045.68 432.445 1035.94C432.445 1033.37 432.373 1030.81 432.26 1028.25C432.147 1025.46 431.367 1022.87 428.01 1023.02C425.094 1023.15 424.18 1025.49 424.098 1028.12C424.037 1030 423.995 1031.88 423.995 1033.76C423.995 1044.02 423.831 1054.27 424.078 1064.52C424.17 1068.24 422.856 1069.1 419.386 1069.09C409.161 1069.07 409.161 1069.2 409.161 1058.79C409.161 1039.48 409.284 1020.17 409.068 1000.87C409.017 996.555 410.3 995.354 414.551 995.508C423.954 995.857 423.965 995.641 423.975 1004.95C423.975 1008 423.975 1011.06 423.975 1014.42V1014.41Z" fill="#0070B8"/>
<path d="M235.939 1016.29C236.699 1015.41 237.469 1014.54 238.218 1013.67C241.914 1009.35 246.708 1008.64 251.759 1010.18C256.728 1011.69 258.442 1016.08 258.514 1020.66C258.761 1035.71 258.596 1050.76 258.668 1065.81C258.679 1068.27 257.693 1069.09 255.311 1069.03C241.144 1068.7 244.101 1071.01 243.834 1058.51C243.639 1049.45 243.803 1040.38 243.803 1031.32C243.803 1029.95 243.854 1028.57 243.68 1027.22C243.372 1024.73 241.965 1022.99 239.388 1022.94C236.883 1022.89 235.888 1024.83 235.6 1027C235.354 1028.86 235.323 1030.75 235.313 1032.63C235.292 1043.41 235.21 1054.18 235.364 1064.96C235.405 1068.08 234.399 1069.02 231.268 1069.09C220.334 1069.29 220.334 1069.41 220.334 1058.53C220.334 1044.17 220.427 1029.8 220.242 1015.43C220.191 1011.85 221.279 1010.34 224.862 1010.75C225.878 1010.87 226.915 1010.75 227.942 1010.75C231.586 1010.78 236.247 1009.4 234.379 1017.2C234.892 1016.9 235.405 1016.59 235.918 1016.3L235.939 1016.29Z" fill="#0070B8"/>
<path d="M876.047 1040.19C876.047 1048.22 875.934 1056.26 876.108 1064.29C876.19 1067.69 875.338 1069.46 871.571 1069.03C869.374 1068.79 867.136 1069.03 864.908 1069C863.748 1068.99 862.187 1069.25 862.023 1067.64C861.345 1061.11 859.261 1065.36 857.485 1066.98C853.512 1070.62 848.964 1070.91 844.15 1069.17C839.54 1067.5 838.318 1063.49 838.267 1059.29C838.093 1044.42 838.236 1029.54 838.144 1014.67C838.123 1011.8 839.222 1010.89 842.024 1010.71C853.091 1010.03 853.091 1009.95 853.081 1020.82C853.081 1030.74 853.081 1040.66 853.061 1050.58C853.061 1053.39 853.02 1056.66 856.715 1056.78C860.627 1056.9 860.996 1053.65 860.996 1050.55C861.017 1038.92 861.222 1027.29 860.986 1015.67C860.904 1011.76 862.167 1010.59 865.934 1010.67C878.418 1010.96 875.667 1009.59 876.016 1020.68C876.119 1023.92 876.026 1027.18 876.016 1030.42C876.016 1033.67 876.016 1036.92 876.016 1040.17L876.047 1040.19Z" fill="#0070B8"/>
<path d="M517.048 1016.25C520.847 1012.41 524.265 1009.25 529.614 1009.46C535.558 1009.69 539.962 1013.25 540.055 1019.19C540.301 1034.74 540.157 1050.28 540.147 1065.83C540.147 1067.18 540.322 1068.84 538.361 1068.9C534.603 1069.02 530.836 1069.14 527.099 1068.89C524.563 1068.72 525.261 1066.4 525.251 1064.84C525.2 1053.05 525.21 1041.26 525.23 1029.48C525.23 1026.52 525.497 1022.98 521.411 1023C517.223 1023.02 517.151 1026.52 517.171 1029.78C517.233 1041.39 517.12 1053.01 517.284 1064.62C517.325 1067.73 516.853 1069.17 513.168 1069.15C502.419 1069.07 502.409 1069.25 502.429 1058.35C502.439 1044.34 502.624 1030.33 502.398 1016.33C502.326 1012.16 503.404 1010.18 507.768 1010.79C508.609 1010.91 509.482 1010.89 510.324 1010.79C514.133 1010.36 517.264 1010.77 517.058 1016.28L517.048 1016.25Z" fill="#0070B8"/>
<path d="M723.789 1039.69C723.789 1044.31 723.83 1048.92 723.789 1053.54C723.696 1062.42 719.138 1067.88 710.412 1069.65C700.567 1071.64 691.389 1068.59 687.621 1062.14C686.03 1059.4 685.321 1056.48 685.332 1053.33C685.352 1044.44 685.249 1035.55 685.352 1026.66C685.465 1016.58 691.409 1010.26 701.398 1009.65C707.045 1009.31 712.712 1009.26 717.567 1013.04C721.428 1016.05 723.717 1019.85 723.768 1024.82C723.809 1029.78 723.768 1034.74 723.768 1039.69H723.789ZM708.862 1040.01C708.862 1035.24 708.913 1030.46 708.841 1025.7C708.79 1022.76 708.862 1019.58 704.529 1019.66C700.556 1019.75 700.484 1022.87 700.443 1025.51C700.3 1035.22 700.351 1044.93 700.402 1054.64C700.423 1057.53 700.926 1060.34 704.745 1060.23C708.164 1060.12 708.79 1057.56 708.841 1054.84C708.923 1049.9 708.862 1044.95 708.862 1040.01Z" fill="#0070B8"/>
<path d="M148.225 1040.17C148.225 1034.87 148.112 1029.57 148.256 1024.28C148.451 1016.8 153.132 1011.51 160.555 1010.14C164.281 1009.44 168.028 1009.33 171.775 1009.87C180.902 1011.22 185.922 1017.02 185.963 1026.26C186.004 1035.65 186.025 1045.04 185.963 1054.44C185.902 1062.34 181.672 1067.37 173.89 1069.31C168.593 1070.64 163.357 1070.33 158.204 1068.88C152.362 1067.25 148.492 1062.1 148.276 1056.04C148.173 1053.31 148.225 1050.58 148.215 1047.83C148.215 1045.27 148.215 1042.71 148.215 1040.15H148.235L148.225 1040.17ZM163.09 1039.35H163.049C163.049 1044.65 163.039 1049.96 163.049 1055.26C163.049 1057.83 163.501 1060.18 166.807 1060.25C169.928 1060.31 171.005 1058.29 171.016 1055.6C171.067 1044.99 171.047 1034.4 171.016 1023.79C171.016 1021.12 169.661 1019.66 166.909 1019.64C163.983 1019.62 163.08 1021.42 163.07 1023.98C163.059 1029.11 163.07 1034.23 163.07 1039.37L163.09 1039.35Z" fill="#0070B8"/>
<path d="M308.45 1016.19C309.466 1015.08 310.431 1013.9 311.509 1012.84C315.04 1009.35 319.342 1008.9 323.88 1010.08C328.304 1011.23 329.906 1014.75 330.604 1018.84C330.748 1019.68 330.84 1020.54 330.85 1021.39C330.85 1035.92 330.779 1050.43 330.881 1064.96C330.902 1068.03 329.947 1069.07 326.775 1069.11C316.313 1069.24 316.355 1069.37 316.344 1059.23C316.324 1049.32 316.231 1039.42 316.088 1029.51C316.047 1026.59 316.129 1023.06 312.084 1023.02C307.988 1022.98 307.361 1026.58 307.32 1029.67C307.166 1040.61 307.269 1051.54 307.269 1062.47C307.269 1066.83 305.021 1069.01 300.524 1069C295.418 1068.99 292.865 1066.51 292.865 1061.57C292.865 1047.39 292.835 1033.21 292.855 1019.03C292.865 1010.88 292.896 1010.91 300.781 1010.76C304.507 1010.69 308.675 1009.88 306.612 1017.54C307.218 1017.09 307.834 1016.65 308.439 1016.19H308.45Z" fill="#0070B8"/>
<path d="M977.856 1039.69C977.856 1034.57 977.846 1029.45 977.856 1024.33C977.877 1019.75 979.909 1016.16 983.41 1013.33C991.849 1006.48 1008.04 1008.7 1013.69 1017.41C1016.72 1022.1 1015.76 1027.32 1015.77 1032.36C1015.78 1042.74 1017.17 1041.49 1006.5 1041.64C1003.08 1041.7 999.672 1041.74 996.253 1041.67C993.635 1041.63 992.588 1042.78 992.701 1045.4C992.845 1048.81 992.773 1052.23 992.773 1055.65C992.773 1058.12 993.43 1060.09 996.335 1060.28C999.107 1060.46 1000.23 1058.81 1000.82 1056.36C1001.45 1053.77 999.744 1050.24 1002.28 1048.69C1005.01 1047.02 1008.62 1048.3 1011.83 1048.02C1014.72 1047.77 1015.66 1049.08 1015.83 1051.86C1016.42 1061.46 1011.99 1067.45 1002.65 1069.49C997.865 1070.52 993.153 1070.3 988.472 1069.02C982.26 1067.33 978.051 1062.11 977.867 1055.59C977.713 1050.3 977.836 1045 977.836 1039.7L977.856 1039.69ZM992.773 1025.8C992.999 1028.51 991.623 1031.77 996.602 1031.78C1001.03 1031.78 1001.05 1029.25 1001.04 1026.2C1001.04 1023.04 1001.12 1019.73 996.674 1019.66C992.157 1019.6 993.009 1023.13 992.773 1025.8Z" fill="#0070B8"/>
<path d="M493.724 1045.23C493.724 1051.9 493.652 1058.56 493.754 1065.24C493.806 1068.07 492.738 1069.67 489.874 1068.97C486.353 1068.11 481.62 1071.65 479.259 1066.03C478.91 1065.19 477.626 1066.71 476.846 1067.26C467.596 1073.62 457.895 1069.75 455.8 1058.85C453.603 1047.41 457.751 1039.64 468.479 1035.1C470.204 1034.38 472.011 1033.82 473.705 1033.01C476.836 1031.5 478.858 1029.05 479.135 1025.51C479.341 1022.87 479.269 1020.19 475.717 1019.68C472.473 1019.23 470.604 1021.03 470.563 1023.93C470.512 1027.78 468.582 1028.54 465.409 1028.21C465.071 1028.17 464.711 1028.27 464.383 1028.21C461.981 1027.71 458.408 1029.59 457.361 1027.05C456.119 1024.05 456.488 1020.33 458.418 1017.19C459.609 1015.25 461.067 1013.64 463.048 1012.51C470.44 1008.3 478.232 1008.49 485.808 1011.35C492.132 1013.73 493.385 1019.76 493.621 1025.75C493.867 1032.24 493.672 1038.75 493.672 1045.25H493.724V1045.23ZM479.074 1049.55C479.074 1049.55 479.146 1049.55 479.176 1049.55C479.176 1047.51 479.238 1045.46 479.156 1043.42C479.105 1042.32 479.823 1040.81 478.324 1040.28C477.021 1039.81 476.292 1041.2 475.306 1041.8C469.003 1045.59 471.682 1051.78 471.292 1057.09C471.128 1059.26 472.175 1061.17 474.772 1061.29C477.534 1061.43 478.827 1059.66 479.033 1057.21C479.238 1054.67 479.084 1052.11 479.084 1049.56L479.074 1049.55Z" fill="#0070B8"/>
<path d="M884.537 1039.52C884.537 1034.57 884.342 1029.6 884.588 1024.66C884.907 1018.34 887.997 1013.75 893.941 1011.17C905.264 1006.27 918.59 1010.55 921.885 1020.29C923.097 1023.86 924.637 1028.73 922.07 1030.94C919.031 1033.55 913.909 1031.78 909.689 1031.66C908.17 1031.61 907.995 1030.2 907.944 1028.96C907.872 1027.25 907.975 1025.53 907.769 1023.84C907.492 1021.45 906.579 1019.62 903.653 1019.61C900.983 1019.61 899.823 1021.25 899.721 1023.42C899.187 1034.51 899.187 1045.61 899.741 1056.69C899.844 1058.66 900.973 1060.21 903.345 1060.3C905.87 1060.4 907.266 1059.07 907.544 1056.77C907.862 1054.07 907.78 1051.32 907.934 1048.59C908.016 1047.13 907.626 1045.12 909.812 1045.01C913.56 1044.81 917.317 1044.91 921.074 1044.97C922.286 1044.99 922.655 1045.89 922.933 1047C925.941 1059.18 918.292 1069.55 905.829 1070.06C902.585 1070.19 899.361 1070.12 896.169 1069.26C889.321 1067.42 885.04 1062.45 884.568 1055.4C884.383 1052.68 884.486 1049.94 884.475 1047.21C884.465 1044.64 884.475 1042.09 884.475 1039.52C884.496 1039.52 884.527 1039.52 884.547 1039.52H884.537Z" fill="#0070B8"/>
<path d="M138.79 1028.05C138.79 1037.28 139.005 1046.52 138.718 1055.74C138.502 1062.94 134.078 1067.6 127.004 1069.24C122.087 1070.39 117.21 1070.48 112.293 1069.35C105.281 1067.73 100.61 1062.52 100.158 1055.41C99.922 1051.66 100.158 1047.89 100.035 1044.14C99.9528 1041.79 100.754 1040.91 103.217 1040.71C114.88 1039.77 114.87 1039.69 115.301 1051.28C115.342 1052.48 115.475 1053.67 115.66 1054.85C115.948 1056.76 117.026 1058.07 119.027 1058.06C120.896 1058.06 122.405 1057.06 122.754 1055.14C123.144 1052.98 123.37 1050.74 123.37 1048.54C123.411 1032.82 123.514 1017.09 123.288 1001.36C123.226 997.007 124.284 995.364 128.975 995.528C139.047 995.888 139.057 995.621 139.057 1005.5C139.057 1013.02 139.057 1020.54 139.057 1028.06C138.964 1028.06 138.872 1028.06 138.79 1028.06V1028.05Z" fill="#0070B8"/>
<path d="M945.796 1040.03C945.796 1044.99 945.734 1049.95 945.816 1054.91C945.868 1057.92 946.771 1060.46 950.488 1060.26C954.019 1060.06 954.204 1057.44 954.307 1054.72C954.686 1044.25 954.707 1044.35 965.374 1044.8C968.279 1044.92 969.347 1045.88 969.152 1048.74C968.864 1052.96 969.788 1057.27 967.725 1061.33C964.111 1068.45 955.795 1071.65 945.437 1069.8C935.571 1068.05 931.29 1063.01 931.269 1052.95C931.238 1043.38 931.002 1033.8 931.413 1024.25C931.741 1016.54 935.879 1011.99 943.322 1010.19C948.383 1008.97 953.547 1009.17 958.536 1010.65C966.277 1012.95 970.876 1021.36 969.069 1029.37C968.72 1030.93 968.063 1031.84 966.39 1031.84C965.025 1031.84 963.659 1031.84 962.283 1031.84C954.789 1031.84 954.727 1031.84 954.358 1024.42C954.224 1021.69 953.557 1019.75 950.354 1019.65C947.192 1019.56 945.991 1021.55 945.899 1024.14C945.703 1029.44 945.837 1034.73 945.837 1040.03C945.816 1040.03 945.806 1040.03 945.786 1040.03H945.796Z" fill="#0070B8"/>
<path d="M1052.02 1026.91C1047.76 1027.24 1044.21 1027.66 1044.18 1022.15C1044.17 1019.85 1041.88 1019.43 1039.84 1019.76C1037.87 1020.07 1036.98 1021.41 1036.89 1023.35C1036.75 1026.18 1038.18 1028.26 1040.24 1029.94C1043.94 1032.97 1047.69 1035.95 1051.43 1038.9C1057.75 1043.88 1059.65 1050.55 1058.27 1058.12C1057.25 1063.72 1053.87 1067.63 1048.14 1069.17C1042.37 1070.72 1036.63 1070.47 1030.96 1068.76C1025.52 1067.12 1021.46 1059.15 1023.05 1053.77C1023.48 1052.31 1024.38 1051.87 1025.65 1051.83C1027.86 1051.76 1030.09 1051.88 1032.31 1051.76C1034.78 1051.61 1036.14 1052.32 1036.12 1055.13C1036.11 1057.44 1036.91 1059.6 1039.59 1060.14C1041.11 1060.45 1042.68 1060.46 1043.71 1058.9C1045.21 1056.64 1045.03 1054.32 1043.71 1052.13C1041.92 1049.13 1039.01 1047.27 1036.29 1045.19C1030.47 1040.72 1024.55 1036.44 1023.61 1028.1C1022.46 1017.84 1028.35 1010.25 1038.6 1009.62C1043.08 1009.35 1047.49 1009.57 1051.59 1011.73C1055.77 1013.94 1059.05 1020.2 1058.15 1024.69C1057.27 1029.09 1053.58 1026.03 1052.03 1026.91H1052.02Z" fill="#0070B8"/>
<path d="M1091.04 1027.04C1089.2 1027.09 1085.3 1028.06 1085.54 1022.19C1085.63 1019.83 1083.3 1019.5 1081.28 1019.75C1079.02 1020.02 1078.1 1021.51 1078.05 1023.65C1077.99 1026.54 1079.95 1028.26 1081.8 1030.05C1086.44 1034.55 1092.32 1037.58 1096.38 1042.86C1100.86 1048.68 1100.79 1054.94 1098.51 1061.24C1096.16 1067.69 1090.5 1069.65 1084.17 1070.06C1080.58 1070.3 1077.04 1069.96 1073.52 1069.09C1067.16 1067.52 1062.83 1060.47 1064.25 1054.05C1064.64 1052.28 1065.63 1051.88 1067.11 1051.85C1069.16 1051.81 1071.22 1051.85 1073.26 1051.75C1075.88 1051.6 1077.45 1052.39 1077.58 1055.36C1077.69 1057.64 1078.36 1059.82 1081.2 1060.21C1083.03 1060.46 1084.68 1060.1 1085.49 1058.25C1086.53 1055.89 1086.27 1053.62 1084.66 1051.54C1081.36 1047.28 1076.74 1044.56 1072.59 1041.31C1066.17 1036.26 1063.88 1029.77 1065.2 1021.84C1065.23 1021.68 1065.22 1021.5 1065.25 1021.33C1066.5 1014.69 1072.51 1009.91 1080.1 1009.55C1090.97 1009.04 1096.62 1012.01 1098.67 1019.31C1100.68 1026.48 1100.28 1027 1091.05 1027.03L1091.04 1027.04Z" fill="#0070B8"/>
<path d="M623.088 1026.8C618.509 1027.41 615.204 1027.5 615.163 1022.06C615.152 1019.93 612.771 1019.46 610.717 1019.73C608.551 1020 607.956 1021.66 607.874 1023.4C607.74 1026.17 609.219 1028.3 611.272 1029.97C614.978 1032.99 618.756 1035.92 622.493 1038.89C629.145 1044.19 630.767 1051.25 628.961 1059.11C627.78 1064.22 624.454 1067.64 619.074 1069.13C613.243 1070.74 607.535 1070.33 601.899 1068.77C596.54 1067.28 592.444 1059.02 593.973 1053.75C594.394 1052.29 595.257 1051.84 596.55 1051.81C598.942 1051.76 601.334 1051.81 603.716 1051.72C606.046 1051.62 607.176 1052.59 607.176 1054.99C607.176 1057.35 607.802 1059.47 610.451 1060.13C612.247 1060.59 613.982 1060.23 614.875 1058.46C616.035 1056.18 615.953 1053.75 614.454 1051.66C611.929 1048.14 608.284 1045.82 604.876 1043.26C600.03 1039.61 595.862 1035.6 594.661 1029.15C592.731 1018.79 599.035 1010.23 609.506 1009.58C613.787 1009.32 618.048 1009.46 622.031 1011.42C626.538 1013.64 629.926 1019.79 628.991 1024.64C628.139 1029.06 624.443 1026.02 623.068 1026.78L623.088 1026.8Z" fill="#0070B8"/>
<path d="M660.785 1045.52C660.785 1040.05 660.918 1034.58 660.734 1029.12C660.631 1026.19 662.161 1022.66 657.561 1021.07C655.775 1020.45 656.473 1011.93 658.3 1011.47C660.959 1010.79 660.703 1009.16 660.795 1007.26C661.247 998.095 669.07 992.849 677.971 995.621C679.202 996.001 679.767 996.73 679.623 997.787C679.285 1000.3 681.194 1003.26 678.104 1005.25C674.788 1007.39 673.33 1009.38 678.34 1011.41C680.321 1012.21 680.588 1020.72 678.586 1021.41C675.271 1022.55 675.825 1024.93 675.815 1027.19C675.753 1039.5 675.65 1051.8 675.835 1064.1C675.897 1067.8 674.993 1069.15 671 1069.09C660.795 1068.92 660.795 1069.14 660.795 1058.85C660.795 1054.41 660.795 1049.96 660.795 1045.52H660.785Z" fill="#0070B8"/>
<path d="M746.868 1019.3C749.978 1017.22 749.845 1013.46 752.473 1011.65C753.756 1010.76 754.998 1009.48 756.569 1009.92C758.612 1010.5 757.698 1012.48 757.781 1013.88C757.914 1016.1 757.873 1018.33 757.873 1020.55C757.873 1024.52 758.776 1028.62 752.093 1028.36C748.479 1028.23 747.206 1031.95 747.237 1035.61C747.309 1045.01 747.093 1054.42 747.33 1063.81C747.422 1067.68 746.539 1069.23 742.258 1069.12C732.454 1068.85 732.444 1069.09 732.444 1059.53C732.444 1044.83 732.567 1030.13 732.351 1015.42C732.3 1011.72 733.552 1010.75 737.022 1010.72C745.543 1010.65 745.543 1010.51 746.857 1019.32L746.868 1019.3Z" fill="#0070B8"/>
<path d="M210.592 1040C210.592 1048.36 210.51 1056.71 210.643 1065.07C210.684 1067.83 209.976 1068.93 206.968 1069.05C195.686 1069.53 195.696 1069.64 195.696 1058.36C195.696 1044.37 195.829 1030.38 195.614 1016.4C195.552 1012.29 196.671 1010.67 201.003 1010.67C210.561 1010.67 210.561 1010.47 210.561 1020.04C210.561 1026.7 210.561 1033.35 210.561 1040H210.592Z" fill="#0070B8"/>
<path d="M283.276 1039.8C283.276 1048.15 283.174 1056.51 283.338 1064.87C283.4 1067.87 282.64 1069.11 279.365 1069.04C265.824 1068.81 268.421 1070.44 268.277 1058.57C268.103 1044.59 268.39 1030.61 268.175 1016.63C268.113 1012.29 269.253 1010.52 273.903 1010.67C285.248 1011.04 283.112 1009.91 283.256 1019.84C283.348 1026.49 283.276 1033.14 283.276 1039.79V1039.8Z" fill="#0070B8"/>
<path d="M275.351 1005.56C273.123 1004.57 268.555 1007.95 268.165 1001.83C267.877 997.335 268.637 994.584 273.975 995.621C275.115 995.847 276.336 995.641 277.527 995.641C282.835 995.641 285.145 999.091 283.122 1003.97C282.678 1005.03 280.087 1005.56 275.351 1005.56Z" fill="#0070B8"/>
<path d="M203.098 995.641C204.114 995.641 205.151 995.785 206.147 995.621C210.345 994.923 210.777 997.212 210.715 1000.64C210.653 1003.87 210.684 1006.46 206.27 1005.69C204.791 1005.44 203.221 1005.69 201.701 1005.69C196.137 1005.67 194.012 1002.59 195.901 997.274C196.291 996.172 198.693 995.631 203.108 995.652L203.098 995.641Z" fill="#0070B8"/>
<path d="M788.036 785.821C790.253 797.688 792.44 809.566 794.698 821.424C797.542 836.341 800.293 851.268 803.394 866.133C804.287 870.394 803.671 871.964 798.969 871.759C790.612 871.4 782.235 871.533 773.868 871.605C770.829 871.636 769.977 870.517 770.583 867.57C775.316 844.523 779.966 821.455 784.617 798.387C785.459 794.218 786.229 790.03 787.03 785.852L788.036 785.821Z" fill="#0070B8"/>
<path d="M413.904 786.519C418.298 809.464 422.702 832.398 427.096 855.343C427.896 859.532 428.451 863.772 429.426 867.92C430.052 870.578 429.59 871.739 426.644 871.708C417.589 871.615 408.524 871.626 399.469 871.708C396.533 871.739 395.589 870.856 396.246 867.745C399.921 850.385 403.401 832.984 406.953 815.593C408.925 805.922 410.896 796.251 412.867 786.58C413.216 786.56 413.565 786.529 413.914 786.509L413.904 786.519Z" fill="#0070B8"/>
<path d="M644.256 918.994C642.552 918.994 640.848 918.994 639.144 918.994C629.237 918.943 626.804 916.551 626.527 906.777C626.414 902.691 625.87 898.605 626.013 894.53C626.136 891.008 627.44 887.816 631.249 886.512C634.822 885.28 637.768 886.07 640.509 888.822C646.032 894.365 651.74 899.745 657.479 905.063C660.056 907.445 661.76 910.032 660.508 913.594C659.194 917.331 655.98 918.511 652.408 918.748C649.697 918.922 646.977 918.778 644.256 918.778C644.256 918.85 644.256 918.912 644.256 918.984V918.994Z" fill="#0070B8"/>
</g>
<defs>
<clipPath id="clip0_416_11751">
<rect width="1000" height="958.165" fill="white" transform="translate(100.035 121.495)"/>
</clipPath>
</defs>
</svg>
